<svg width="40" height="40" viewBox="0 0 40 40" fill="none" xmlns="http://www.w3.org/2000/svg">
<path d="M3.42871 16.4763H4.82554L4.12712 14.6985L3.42871 16.4763Z" fill="#2FABF7"/>
<path d="M20.7622 14.9524C20.6352 14.8889 20.4447 14.8889 20.2542 14.8889H18.9844V15.9048H20.2542C20.4447 15.9048 20.6352 15.9048 20.7622 15.8413C20.8891 15.7778 20.9526 15.5873 20.9526 15.3969C21.0161 15.1429 20.8891 15.0159 20.7622 14.9524Z" fill="#228FE0"/>
<path d="M34.3492 13.0476V13.8095L33.9683 13.0476H30.9841V13.8095L30.6032 13.0476H26.5397C25.8413 13.0476 25.2698 13.1746 24.7619 13.4286V13.0476H21.9048V13.4286C21.5873 13.1746 21.2063 13.0476 20.6984 13.0476H10.4762L9.77778 14.6349L9.07937 13.0476H5.84127V13.8095L5.46032 13.0476H2.73016L1.46032 16.0317L0 19.3333H1.46032H3.2381L3.61905 18.3174H4.50794L4.88889 19.3333H8.57143V18.5714L8.88889 19.3333H10.7302L11.0476 18.5714V19.3333H19.873V17.6825H20C20.127 17.6825 20.127 17.6825 20.127 17.873V19.2698H24.6984V18.8889C25.0794 19.0794 25.6508 19.2698 26.4127 19.2698H28.3175L28.6984 18.254H29.5873L29.9683 19.2698H33.6508V18.3174L34.2222 19.2698H37.2063V13.0476H34.3492ZM12.8889 18.3809H11.8095V14.8889L10.2857 18.3809H9.33333L7.80952 14.8889V18.3809H5.65079L5.20635 17.4286H3.04762L2.66667 18.4444H1.46032L3.36508 13.9365H4.95238L6.73016 18.1905V13.9365H8.44444L9.84127 16.9841L11.1111 13.9365H12.8889V18.3809ZM17.2064 14.8889H14.7302V15.7143H17.1429V16.6032H14.7302V17.4921H17.2064V18.4444H13.6508V13.9365H17.2064V14.8889ZM21.9683 16.7301C22.0952 16.9841 22.1587 17.1746 22.1587 17.5555V18.4444H21.0794V17.873C21.0794 17.619 21.0794 17.2381 20.8889 16.9841C20.6984 16.7936 20.5079 16.7936 20.127 16.7936H18.9841V18.4444H17.9048V13.9365H20.3175C20.8889 13.9365 21.2698 13.9365 21.5873 14.127C21.9048 14.3174 22.0952 14.6349 22.0952 15.1428C22.0952 15.8413 21.6508 16.2222 21.3333 16.3492C21.6508 16.4127 21.8413 16.6032 21.9683 16.7301ZM23.873 18.3809H22.7937V13.873H23.873V18.3809ZM36.381 18.3809H34.8571L32.8254 15.0159V18.3809H30.6667L30.2857 17.4286H28.0635L27.6825 18.4444H26.4762C25.9683 18.4444 25.3333 18.3174 24.9524 17.9365C24.5714 17.5555 24.381 17.0476 24.381 16.2222C24.381 15.5873 24.5079 14.9524 24.9524 14.4444C25.2698 14.0635 25.8413 13.9365 26.5397 13.9365H27.5556V14.8889H26.5397C26.1587 14.8889 25.9683 14.9524 25.7143 15.1428C25.5238 15.3333 25.3968 15.7143 25.3968 16.1587C25.3968 16.6667 25.4603 16.9841 25.7143 17.2381C25.9048 17.4286 26.1587 17.4921 26.4762 17.4921H26.9206L28.381 14H29.9683L31.746 18.254V14H33.3333L35.1746 17.1111V14H36.254V18.3809H36.381Z" fill="#0571C1"/>
<path d="M28.4443 16.4763H29.9047L29.2062 14.6985L28.4443 16.4763Z" fill="#228FE0"/>
<path d="M17.6508 25.619V22L16 23.7778L17.6508 25.619Z" fill="#228FE0"/>
<path d="M10.8574 22.4443V23.2697H13.2066V24.1586H10.8574V25.111H13.4606L14.6669 23.7777L13.5241 22.4443H10.8574Z" fill="#2FABF7"/>
<path d="M20.0638 22.4443H18.7305V23.5872H20.1273C20.5082 23.5872 20.7622 23.3967 20.7622 23.0158C20.6987 22.6348 20.4448 22.4443 20.0638 22.4443Z" fill="#228FE0"/>
<path d="M39.6823 23.5239V20.6667H38.9204H37.0157C36.4442 20.6667 35.9998 20.7937 35.6823 21.0477V20.6667H32.7617C32.3173 20.6667 31.7458 20.7937 31.4919 21.0477V20.6667H26.349V21.0477C25.9681 20.7302 25.2696 20.6667 24.9522 20.6667H21.5236V21.0477C21.2061 20.7302 20.4442 20.6667 20.0633 20.6667H16.2538L15.3649 21.6191L14.5395 20.6667H8.8252V26.889H14.4125L15.3014 25.9366L16.1268 26.889H19.5554V25.4287H19.9998C20.4442 25.4287 21.0157 25.4287 21.4601 25.2382V26.9525H24.3173V25.3017H24.4442C24.6347 25.3017 24.6347 25.3017 24.6347 25.4921V26.9525H33.2696C33.8411 26.9525 34.4125 26.8255 34.73 26.5715V26.9525H37.4601C38.0315 26.9525 38.603 26.889 38.9839 26.635C39.6188 26.2541 39.9998 25.5556 39.9998 24.7302C39.9998 24.2858 39.8728 23.8414 39.6823 23.5239ZM19.9998 24.5398H18.73V26.0636H16.6982L15.4284 24.6033L14.095 26.0636H9.90456V21.5556H14.1585L15.4284 23.016L16.7617 21.5556H20.1268C20.9522 21.5556 21.9046 21.8096 21.9046 23.016C21.8411 24.2858 20.9522 24.5398 19.9998 24.5398ZM26.349 24.2858C26.476 24.4763 26.5395 24.7302 26.5395 25.1112V26.0001H25.4601V25.4287C25.4601 25.1747 25.4601 24.7302 25.2696 24.5398C25.1427 24.3493 24.8887 24.3493 24.5077 24.3493H23.3649V26.0001H22.2855V21.4921H24.6982C25.2062 21.4921 25.6506 21.4921 25.9681 21.6826C26.2855 21.8731 26.5395 22.1906 26.5395 22.6985C26.5395 23.3969 26.095 23.7779 25.7776 23.9048C26.095 24.0318 26.2855 24.1588 26.349 24.2858ZM30.73 22.4445H28.2538V23.2699H30.6665V24.1588H28.2538V25.0477H30.73V26.0001H27.1744V21.4921H30.73V22.4445ZM33.3966 26.0001H31.3649V25.0477H33.3966C33.5871 25.0477 33.7141 25.0477 33.8411 24.9207C33.9046 24.8572 33.9681 24.7302 33.9681 24.6033C33.9681 24.4763 33.9046 24.3493 33.8411 24.2858C33.7776 24.2223 33.6506 24.1588 33.4601 24.1588C32.4442 24.0953 31.2379 24.1588 31.2379 22.762C31.2379 22.1271 31.6188 21.4287 32.7617 21.4287H34.8569V22.508H32.8887C32.6982 22.508 32.5712 22.508 32.4442 22.5715C32.3173 22.635 32.3173 22.762 32.3173 22.889C32.3173 23.0794 32.4442 23.1429 32.5712 23.2064C32.6982 23.2699 32.8252 23.2699 32.9522 23.2699H33.5236C34.095 23.2699 34.476 23.3969 34.73 23.6509C34.9204 23.8414 35.0474 24.1588 35.0474 24.6033C35.0474 25.5556 34.476 26.0001 33.3966 26.0001ZM38.8569 25.5556C38.603 25.8096 38.1585 26.0001 37.5236 26.0001H35.4919V25.0477H37.5236C37.7141 25.0477 37.8411 25.0477 37.9681 24.9207C38.0315 24.8572 38.095 24.7302 38.095 24.6033C38.095 24.4763 38.0315 24.3493 37.9681 24.2858C37.9046 24.2223 37.7776 24.1588 37.5871 24.1588C36.5712 24.0953 35.3649 24.1588 35.3649 22.762C35.3649 22.1271 35.7458 21.4287 36.8887 21.4287H38.9839V22.508H37.0792C36.8887 22.508 36.7617 22.508 36.6347 22.5715C36.5077 22.635 36.5077 22.762 36.5077 22.889C36.5077 23.0794 36.5712 23.1429 36.7617 23.2064C36.8887 23.2699 37.0157 23.2699 37.1427 23.2699H37.7141C38.2855 23.2699 38.6665 23.3969 38.9204 23.6509C38.9839 23.6509 38.9839 23.7144 38.9839 23.7144C39.1744 23.9683 39.2379 24.2858 39.2379 24.6033C39.2379 24.9842 39.1109 25.3017 38.8569 25.5556Z" fill="#0571C1"/>
<path d="M25.2065 22.5715C25.0795 22.5081 24.889 22.5081 24.6985 22.5081H23.4287V23.5239H24.6985C24.889 23.5239 25.0795 23.5239 25.2065 23.4604C25.3335 23.3969 25.397 23.2065 25.397 23.016C25.4604 22.762 25.3335 22.635 25.2065 22.5715Z" fill="#228FE0"/>
<path d="M20.7622 14.9524C20.6352 14.8889 20.4447 14.8889 20.2542 14.8889H18.9844V15.9048H20.2542C20.4447 15.9048 20.6352 15.9048 20.7622 15.8413C20.8891 15.7778 20.9526 15.5873 20.9526 15.3969C21.0161 15.1429 20.8891 15.0159 20.7622 14.9524Z" fill="#228FE0"/>
<path d="M28.4443 16.4763H29.9047L29.2062 14.6985L28.4443 16.4763Z" fill="#228FE0"/>
<path d="M17.6508 25.619V22L16 23.7778L17.6508 25.619Z" fill="#228FE0"/>
<path d="M20.0638 22.4443H18.7305V23.5872H20.1273C20.5082 23.5872 20.7622 23.3967 20.7622 23.0158C20.6987 22.6348 20.4448 22.4443 20.0638 22.4443Z" fill="#228FE0"/>
<path d="M25.2065 22.5715C25.0795 22.5081 24.889 22.5081 24.6985 22.5081H23.4287V23.5239H24.6985C24.889 23.5239 25.0795 23.5239 25.2065 23.4604C25.3335 23.3969 25.397 23.2065 25.397 23.016C25.4604 22.762 25.3335 22.635 25.2065 22.5715Z" fill="#228FE0"/>
<path d="M19.6188 25.8731L18.73 24.9207V26.0001H16.6347L15.3649 24.5398L13.9681 26.0001H9.77758V21.5556H14.0315L15.3649 23.016L15.9998 22.254L14.4125 20.6667H8.8252V26.889H14.4125L15.3649 25.9366L16.1903 26.889H19.6188V25.8731Z" fill="#2FABF7"/>
<path d="M13.0159 19.2698L12.1905 18.3809H11.8095V18L10.8571 17.0476L10.2222 18.3809H9.33333L7.80952 14.8889V18.3809H5.65079L5.20635 17.4286H3.04762L2.60317 18.3809H1.46032L3.36508 13.9365H4.95238L6.73016 18.1905V13.9365H7.68254L6.79365 13.0476H5.84127V13.8095L5.52381 13.0476H2.73016L1.46032 16.0317L0 19.2698H1.46032H3.30159L3.68254 18.3174H4.57143L5.01587 19.2698H8.57143V18.5079L8.88889 19.2698H10.7302L11.0476 18.5079V19.2698H13.0159Z" fill="#2FABF7"/>
<path d="M10.095 16.3491L9.0791 15.3333L9.841 16.984L10.095 16.3491Z" fill="#2FABF7"/>
<path d="M38.9847 26.5713C39.5561 26.1904 39.937 25.5554 40.0005 24.857L39.1116 23.9681C39.1751 24.1586 39.2386 24.3491 39.2386 24.6031C39.2386 24.984 39.1116 25.3015 38.8577 25.5554C38.6037 25.8094 38.1593 25.9999 37.5243 25.9999H35.4926V25.0475H37.5243C37.7148 25.0475 37.8418 25.0475 37.9688 24.9205C38.0323 24.857 38.0958 24.73 38.0958 24.6031C38.0958 24.4761 38.0323 24.3491 37.9688 24.2856C37.9053 24.2221 37.7783 24.1586 37.5878 24.1586C36.572 24.0951 35.3656 24.1586 35.3656 22.7618C35.3656 22.1269 35.7466 21.5554 36.6989 21.4285L36.0005 20.73C35.8735 20.7935 35.81 20.857 35.7466 20.857V20.4761H32.8259C32.3815 20.4761 31.8101 20.6031 31.5561 20.857V20.4761H26.3497V20.857C25.9688 20.5396 25.2704 20.4761 24.9529 20.4761H21.5243V20.857C21.2069 20.5396 20.445 20.4761 20.064 20.4761H16.2545L15.3656 21.4285L14.5402 20.4761H13.8418L15.7466 22.3808L16.6989 21.365H20.064C20.8894 21.365 21.8418 21.6189 21.8418 22.8253C21.8418 24.0951 20.9529 24.3491 20.0005 24.3491H18.7307V25.3015L19.6831 26.2539V25.3015H20.0005C20.445 25.3015 21.0164 25.3015 21.4608 25.111V26.8253H24.318V25.1745H24.445C24.6354 25.1745 24.6354 25.1745 24.6354 25.365V26.8253H33.2704C33.8418 26.8253 34.4132 26.6983 34.7307 26.4443V26.8253H37.4608C37.9688 26.8888 38.5402 26.8253 38.9847 26.5713ZM26.3497 24.2856C26.4767 24.4761 26.5402 24.73 26.5402 25.111V25.9999H25.4608V25.4285C25.4608 25.1745 25.4608 24.73 25.2704 24.5396C25.1434 24.3491 24.8894 24.3491 24.5085 24.3491H23.3656V25.9999H22.2862V21.4919H24.6989C25.2069 21.4919 25.6513 21.4919 25.9688 21.6824C26.2862 21.8729 26.5402 22.1904 26.5402 22.6983C26.5402 23.3967 26.0958 23.7777 25.7783 23.9046C26.0958 24.0316 26.2862 24.1586 26.3497 24.2856ZM30.7307 22.4443H28.2545V23.2697H30.6672V24.1586H28.2545V25.0475H30.7307V25.9999H27.1751V21.4919H30.7307V22.4443ZM33.3974 25.9999H31.3656V25.0475H33.3974C33.5878 25.0475 33.7148 25.0475 33.8418 24.9205C33.9053 24.857 33.9688 24.73 33.9688 24.6031C33.9688 24.4761 33.9053 24.3491 33.8418 24.2856C33.7783 24.2221 33.6513 24.1586 33.4608 24.1586C32.445 24.0951 31.2386 24.1586 31.2386 22.7618C31.2386 22.1269 31.6196 21.4285 32.7624 21.4285H34.8577V22.5078H32.8894C32.6989 22.5078 32.572 22.5078 32.445 22.5713C32.318 22.6348 32.318 22.7618 32.318 22.8888C32.318 23.0792 32.445 23.1427 32.572 23.2062C32.6989 23.2697 32.8259 23.2697 32.9529 23.2697H33.5243C34.0958 23.2697 34.4767 23.3967 34.7307 23.6507C34.9212 23.8412 35.0481 24.1586 35.0481 24.6031C35.0481 25.5554 34.4767 25.9999 33.3974 25.9999Z" fill="#228FE0"/>
<path d="M36.4443 22.889C36.4443 23.0795 36.5078 23.143 36.6983 23.2065C36.8253 23.27 36.9523 23.27 37.0793 23.27H37.6507C38.0316 23.27 38.2856 23.3335 38.5396 23.4604L37.5872 22.5081H37.0158C36.8253 22.5081 36.6983 22.5081 36.5713 22.5715C36.5078 22.635 36.4443 22.762 36.4443 22.889Z" fill="#228FE0"/>
<path d="M34.2227 19.0793L34.3496 19.2698H34.4131L34.2227 19.0793Z" fill="#228FE0"/>
<path d="M30.7305 15.5872L31.8098 18.1903V16.6665L30.7305 15.5872Z" fill="#228FE0"/>
<path d="M19.8734 17.6825H20.0004C20.1274 17.6825 20.1274 17.6825 20.1274 17.873V19.2698H24.6988V18.8889C25.0798 19.0793 25.6512 19.2698 26.4131 19.2698H28.3179L28.6988 18.2539H29.5877L29.9687 19.2698H33.6512V18.6349L32.7623 17.746V18.4444H30.6036L30.2861 17.4285H28.0639L27.683 18.4444H26.4766C25.9687 18.4444 25.3337 18.3174 24.9528 17.9365C24.5718 17.5555 24.3814 17.0476 24.3814 16.2222C24.3814 15.5873 24.5084 14.9524 24.9528 14.4444C25.2703 14.0635 25.8417 13.9365 26.5401 13.9365H27.556V14.8889H26.5401C26.1591 14.8889 25.9687 14.9524 25.7147 15.1428C25.5242 15.3333 25.3972 15.7143 25.3972 16.1587C25.3972 16.6666 25.4607 16.9841 25.7147 17.2381C25.9052 17.4285 26.1591 17.492 26.4766 17.492H26.9211L28.3814 14H29.0163L28.1274 13.1111H26.4766C25.7782 13.1111 25.2068 13.2381 24.6988 13.492V13.1111H21.9052V13.492C21.5877 13.2381 21.2068 13.1111 20.6988 13.1111H10.4766L9.7782 14.6984L9.07978 13.1111H6.28613L7.17502 14H8.44486L9.52423 16.3492L9.90518 16.7301L11.048 13.9365H12.8258V18.4444H11.7465V14.9524L10.6671 17.492L12.5084 19.3333H19.8099L19.8734 17.6825ZM22.7941 13.9365H23.8734V18.4444H22.7941V13.9365ZM17.2068 14.8889H14.7306V15.7143H17.1433V16.6031H14.7306V17.492H17.2068V18.4444H13.6512V13.9365H17.2068V14.8889ZM18.9845 18.3809H17.9052V13.873H20.3179C20.8893 13.873 21.2703 13.873 21.5877 14.0635C21.9052 14.2539 22.0957 14.5714 22.0957 15.0793C22.0957 15.7778 21.6512 16.1587 21.3337 16.2857C21.5877 16.3492 21.7782 16.5397 21.8417 16.6666C21.9687 16.9206 22.0322 17.1111 22.0322 17.492V18.3809H20.9528V17.8095C20.9528 17.5555 20.9528 17.1746 20.7623 16.9206C20.6988 16.7936 20.5084 16.7936 20.1274 16.7936H18.9845V18.3809Z" fill="#228FE0"/>
</svg>
