<svg width="40" height="40" viewBox="0 0 40 40" fill="none" xmlns="http://www.w3.org/2000/svg">
<path d="M28 32H28.5714L29.2064 31.9365L29.7778 31.873L30.4127 31.746L30.9841 31.619L31.5556 31.4921L32.127 31.3016L32.6349 31.0476L33.2064 30.7936L33.7143 30.5397L34.2222 30.2857L34.6667 29.9683L35.1746 29.6508L35.6191 29.2698L36.0635 28.8889L36.4445 28.5079L36.8889 28.0635L37.2699 27.619L37.5873 27.1746L37.9683 26.7302L38.2857 26.2222L38.5397 25.7143L38.7937 25.2063L39.0476 24.6349L39.2381 24.127L39.4921 23.5556L39.6191 22.9841L39.746 22.4127L39.873 21.8413L39.9365 21.2063L40 20.5714V20V19.3651L39.9365 18.7302L39.873 18.1587L39.746 17.5873L39.6191 17.0159L39.4921 16.4444L39.2381 15.873L39.0476 15.3016L38.7937 14.7936L38.5397 14.2857L38.2857 13.7778L37.9683 13.2698L37.5873 12.8254L37.2699 12.381L36.8889 11.9365L36.4445 11.4921L36.0635 11.1111L35.6191 10.7302L35.1746 10.3492L34.6667 10.0317L34.2222 9.71429L33.7143 9.46032L33.2064 9.14286L32.6349 8.95238L32.127 8.69841L31.5556 8.50794L30.9841 8.38095L30.4127 8.25397L29.7778 8.12698L29.2064 8.06349L28.5714 8H28H27.3651L26.7302 8.06349L26.1587 8.12698L25.5238 8.25397L24.9524 8.38095L24.381 8.50794L23.8095 8.69841L23.3016 8.95238L22.7302 9.14286L22.2222 9.46032L21.7143 9.71429L21.2699 10.0317L20.7619 10.3492L20.3175 10.7302L19.873 11.1111L19.4921 11.4921L19.0476 11.9365L18.6667 12.381L18.3492 12.8254L18.0318 13.2698L17.7143 13.7778L17.3968 14.2857L17.1429 14.7936L16.8889 15.3016L16.6984 15.873L16.508 16.4444L16.3175 17.0159L16.1905 17.5873L16.0635 18.1587L16 18.7302V19.3651L15.9365 20L16 20.5714V21.2063L16.0635 21.8413L16.1905 22.4127L16.3175 22.9841L16.508 23.5556L16.6984 24.127L16.8889 24.6349L17.1429 25.2063L17.3968 25.7143L17.7143 26.2222L18.0318 26.7302L18.3492 27.1746L18.6667 27.619L19.0476 28.0635L19.4921 28.5079L19.873 28.8889L20.3175 29.2698L20.7619 29.6508L21.2699 29.9683L21.7143 30.2857L22.2222 30.5397L22.7302 30.7936L23.3016 31.0476L23.8095 31.3016L24.381 31.4921L24.9524 31.619L25.5238 31.746L26.1587 31.873L26.7302 31.9365L27.3651 32H28Z" fill="#0594CC"/>
<path d="M20 10.9841L19.873 11.1111L19.4921 11.4921L19.0476 11.9365L18.6667 12.381L18.3492 12.8254L18.0318 13.2698L17.7143 13.7778L17.3968 14.2857L17.1429 14.7937L16.8889 15.3016L16.6984 15.873L16.508 16.4444L16.3175 17.0159L16.1905 17.5873L16.0635 18.1587L16 18.7302V19.3651L15.9365 20L16 20.5714V21.2064L16.0635 21.8413L16.1905 22.4127L16.3175 22.9841L16.508 23.5556L16.6984 24.127L16.8889 24.6349L17.1429 25.2064L17.3968 25.7143L17.7143 26.2222L18.0318 26.7302L18.3492 27.1746L18.6667 27.6191L19.0476 28.0635L19.4921 28.5079L19.873 28.8889L20.3175 29.2698L20.7619 29.6508L21.2699 29.9683L21.7143 30.2857L22.2222 30.5397L22.7302 30.7937L23.3016 31.0476L23.8095 31.3016L24.381 31.4921L24.9524 31.6191L25.5238 31.746L26.1587 31.873L26.7302 31.9365L27.3651 32H28H28.5714L29.2064 31.9365L29.7778 31.873L30.4127 31.746L30.9841 31.6191L31.5556 31.4921L32.127 31.3016L32.6349 31.0476L33.2064 30.7937L33.7143 30.5397L34.2222 30.2857L34.6667 29.9683L35.1746 29.6508L35.6191 29.2698L36.0635 28.8889L36.4445 28.5079L36.8889 28.0635L36.9524 27.9365L20 10.9841Z" fill="#027DBA"/>
<path d="M12.0635 32H12.6349L13.2698 31.9365L13.8413 31.873L14.4762 31.746L15.0476 31.619L15.619 31.4921L16.1905 31.3016L16.6984 31.0476L17.2698 30.7936L17.7778 30.5397L18.2857 30.2857L18.7302 29.9683L19.2381 29.6508L19.6825 29.2698L20.127 28.8889L20.5079 28.5079L20.9524 28.0635L21.3333 27.619L21.6508 27.1746L21.9683 26.7302L22.2857 26.2222L22.6032 25.7143L22.8571 25.2063L23.1111 24.6349L23.3016 24.127L23.4921 23.5556L23.6825 22.9841L23.8095 22.4127L23.9365 21.8413L24 21.2063V20.5714L24.0635 20L24 19.3651V18.7302L23.9365 18.1587L23.8095 17.5873L23.6825 17.0159L23.4921 16.4444L23.3016 15.873L23.1111 15.3016L22.8571 14.7936L22.6032 14.2857L22.2857 13.7778L21.9683 13.2698L21.6508 12.8254L21.3333 12.381L20.9524 11.9365L20.5079 11.4921L20.127 11.1111L19.6825 10.7302L19.2381 10.3492L18.7302 10.0317L18.2857 9.71429L17.7778 9.46032L17.2698 9.14286L16.6984 8.95238L16.1905 8.69841L15.619 8.50794L15.0476 8.38095L14.4762 8.25397L13.8413 8.12698L13.2698 8.06349L12.6349 8H12.0635H11.4286L10.7937 8.06349L10.2222 8.12698L9.5873 8.25397L9.01587 8.38095L8.44444 8.50794L7.87302 8.69841L7.36508 8.95238L6.79365 9.14286L6.28571 9.46032L5.77778 9.71429L5.33333 10.0317L4.8254 10.3492L4.38095 10.7302L3.93651 11.1111L3.55556 11.4921L3.11111 11.9365L2.73016 12.381L2.4127 12.8254L2.03175 13.2698L1.71429 13.7778L1.46032 14.2857L1.20635 14.7936L0.952381 15.3016L0.761905 15.873L0.571429 16.4444L0.380952 17.0159L0.253968 17.5873L0.126984 18.1587L0.0634921 18.7302L0 19.3651V20V20.5714L0.0634921 21.2063L0.126984 21.8413L0.253968 22.4127L0.380952 22.9841L0.571429 23.5556L0.761905 24.127L0.952381 24.6349L1.20635 25.2063L1.46032 25.7143L1.71429 26.2222L2.03175 26.7302L2.4127 27.1746L2.73016 27.619L3.11111 28.0635L3.55556 28.5079L3.93651 28.8889L4.38095 29.2698L4.8254 29.6508L5.33333 29.9683L5.77778 30.2857L6.28571 30.5397L6.79365 30.7936L7.36508 31.0476L7.87302 31.3016L8.44444 31.4921L9.01587 31.619L9.5873 31.746L10.2222 31.873L10.7937 31.9365L11.4286 32H12.0635Z" fill="#1F4789"/>
<path d="M15.619 31.492L16.1905 31.3016L16.6984 31.0476L17.2698 30.7936L17.7778 30.5397L18.2857 30.2857L18.7302 29.9682L19.2381 29.6508L19.6825 29.2698L19.9365 29.0159L2.98413 12.0635L2.73016 12.3809L2.4127 12.8254L2.03175 13.2698L1.71429 13.7778L1.46032 14.2857L1.20635 14.7936L0.952381 15.3016L0.761905 15.873L0.571429 16.4444L0.380952 17.0159L0.253968 17.5873L0.126984 18.1587L0.0634921 18.7301L0 19.3651V20V20.5714L0.0634921 21.2063L0.126984 21.8413L0.253968 22.4127L0.380952 22.9841L0.571429 23.5555L0.761905 24.127L0.952381 24.6349L1.20635 25.2063L1.46032 25.7143L1.71429 26.2222L2.03175 26.7301L2.4127 27.1746L2.73016 27.619L3.11111 28.0635L3.55556 28.5079L3.93651 28.8889L4.38095 29.2698L4.8254 29.6508L5.33333 29.9682L5.77778 30.2857L6.28571 30.5397L6.79365 30.7936L7.36508 31.0476L7.87302 31.3016L8.44444 31.492L9.01587 31.619L9.5873 31.746L10.2222 31.873L10.7937 31.9365L11.4286 32H12.0635H12.6349L13.2698 31.9365L13.8413 31.873L14.4762 31.746L15.0476 31.619L15.619 31.492Z" fill="#3F6FBC"/>
<path d="M18.54 12.5715H24.6353V11.873H19.1115L18.54 12.5715Z" fill="#0594CC"/>
<path d="M17.5869 13.9682H22.7298L22.0948 13.3333H17.9679L17.5869 13.9682Z" fill="#027DBA"/>
<path d="M16.8252 15.4286H23.3649V14.7302H17.2061L16.8252 15.4286Z" fill="#027DBA"/>
<path d="M16.3809 16.8254H24.6348V16.1904H16.5713L16.3809 16.8254Z" fill="#027DBA"/>
<path d="M16.0635 18.2856H24.6349V17.5872H16.1905L16.0635 18.2856Z" fill="#027DBA"/>
<path d="M15.9365 19.6825H24.6349V19.0476H16L15.9365 19.6825Z" fill="#027DBA"/>
<path d="M16 21.1427H24.6349V20.4443H15.9365L16 21.1427Z" fill="#027DBA"/>
<path d="M16.2539 22.5397H24.6349V21.8413H16.127L16.2539 22.5397Z" fill="#027DBA"/>
<path d="M16.6348 23.9364H24.6348V23.3015H16.4443L16.6348 23.9364Z" fill="#027DBA"/>
<path d="M17.2696 25.3969H24.6347V24.6985H16.8887L17.2696 25.3969Z" fill="#027DBA"/>
<path d="M18.0948 26.8571H24.6345V26.1587H17.6504L18.0948 26.8571Z" fill="#027DBA"/>
<path d="M19.2384 28.2538H24.6352V27.5554H18.667L19.2384 28.2538Z" fill="#027DBA"/>
<path d="M38.222 23.4286L38.1585 23.2381L38.095 23.1111L38.0315 23.0476L37.968 22.9841L37.841 22.9207H37.7775H37.6505H37.5871H37.5236H37.3966H37.3331L37.2061 22.9841L37.1426 23.0476V23.1111L37.0791 23.2381L37.0156 23.3651V23.4286V23.4921V23.5556V23.6191V23.6826V23.7461L37.1426 23.8095L37.2061 23.873L37.2696 23.9365L37.3966 24H37.4601H37.5236H37.6505H37.714H37.7775H37.9045H37.968H38.0315L38.095 23.9365L38.1585 23.873L38.222 23.8095L38.2855 23.6826L38.349 23.5556V23.4921V23.4286H38.222ZM38.095 23.4921V23.5556V23.6191L38.0315 23.6826L37.968 23.8095L37.9045 23.873H37.7775H37.714H37.6505H37.5871H37.5236H37.4601L37.3331 23.8095L37.2696 23.7461L37.2061 23.6826V23.6191V23.5556V23.4921V23.4286L37.2696 23.3651V23.3016L37.3331 23.2381L37.3966 23.1746H37.4601H37.5236H37.5871H37.6505H37.714L37.7775 23.2381L37.841 23.3016L37.9045 23.3651L37.968 23.4286V23.4921H38.095Z" fill="white"/>
<path d="M37.8419 23.492L37.9054 23.3651V23.3016V23.2381V23.1746V23.1111L37.7784 23.1746H37.7149H37.3975V23.746H37.5879V23.5555H37.6514L37.7784 23.746H37.9689L37.8419 23.492ZM37.7149 23.3651L37.5244 23.4285V23.3651H37.7149Z" fill="white"/>
<path d="M34.0955 18.7937V18.7302L34.159 18.6033L34.2225 18.5398L34.2859 18.4763H34.3494L34.4129 18.4128L34.5399 18.3493H34.6669L34.7939 18.2858H34.9209H35.2383H35.5558H35.8732L36.4447 18.3493H36.6986L37.0796 16.8255L36.3177 16.6985L35.2383 16.635H34.7939H34.4129H34.2225L34.0955 16.6985L33.778 16.762H33.5875L33.4605 16.8255H33.3336L33.2066 16.889L33.0796 16.9525L32.8891 17.0795L32.7621 17.1429L32.6986 17.2064L32.5717 17.2699L32.4447 17.3969L32.3812 17.5239L32.2542 17.7144L32.1907 17.7779L32.1272 17.9683L32.0637 18.0953L32.0002 18.3493L31.9367 18.6033V18.8572L31.8732 19.1112V19.3017L31.9367 19.4922L32.0002 19.6826V19.8096L32.0637 19.9366L32.1907 20.1271L32.2542 20.1906L32.3812 20.3175L32.4447 20.4445L32.5717 20.508L32.6986 20.635L32.8256 20.6985L32.9526 20.762L33.0796 20.8255L33.8415 21.1429L34.0955 21.2064L34.159 21.2699L34.2859 21.3334L34.3494 21.3969L34.4129 21.4604V21.5239L34.4764 21.5874V21.6509V21.7144V21.8414V21.9683L34.4129 22.0953L34.3494 22.1588L34.2859 22.2858L34.159 22.3493H34.0955L34.032 22.4128H33.9685L33.778 22.4763H33.5875H33.2066H32.9526L32.3177 22.3493L31.8098 22.2858L31.3653 22.1588L31.0479 23.6826L31.4288 23.8096L31.9367 23.9366L32.7621 24.0001H33.8415H34.0955H34.4129L34.6669 23.9366L34.8574 23.8731H34.9844L35.2383 23.8096L35.3018 23.7461L35.4288 23.6826L35.6828 23.5556L35.8732 23.4287L35.9367 23.3652L36.0637 23.3017L36.1272 23.1747L36.1907 23.1112L36.3177 22.9842L36.3812 22.8572L36.4447 22.7302L36.5082 22.6668V22.4763L36.5717 22.3493L36.6352 22.2223V22.0953L36.6986 21.9049V21.7144V21.5239V21.3334L36.6352 21.1429V20.9525L36.5717 20.8255L36.5082 20.6985V20.5715L36.3812 20.4445L36.3177 20.381L36.2542 20.2541L36.1907 20.1906L36.0637 20.1271L35.8732 20.0001L35.7463 19.9366L35.6828 19.8731L35.4288 19.8096L34.9844 19.6826L34.7304 19.5556L34.6034 19.4922L34.4129 19.4287L34.2859 19.3017L34.2225 19.2382L34.159 19.1747V19.0477L34.0955 18.9842V18.9207V18.8572V18.7937Z" fill="white"/>
<path d="M10.1592 23.9365V24H12.4449L13.6512 16.9524V16.8889H11.3655L10.1592 23.9365Z" fill="white"/>
<path d="M29.0794 16.8889L28.5715 20.508L28.508 20.6349L28.4445 20.8254L28.381 21.0159L28.3175 21.1429L28.254 21.2699L28.127 21.3968L28.0635 21.4603L27.9366 21.5873L27.8096 21.6508L27.6826 21.7143L27.5556 21.7778H27.4286L27.3016 21.8413H27.0477H26.9842H26.8572H26.7937H26.6667L26.6032 21.7778L26.5397 21.7143H26.4762L26.4127 21.6508L26.3493 21.5238L26.2858 21.4603L26.2223 21.3968V21.2699L26.1588 21.1429V21.0159V20.8889V20.6984L26.7302 16.8889H24.508L23.8731 21.0159L23.8096 21.3333V21.4603V21.6508V21.7778V21.9048L23.8731 22.0953L23.9366 22.3492V22.4762L24 22.7302L24.127 22.9206L24.254 23.1746L24.3175 23.2381L24.381 23.3651L24.5715 23.4921L24.635 23.6191L24.6985 23.6826L24.8254 23.746L25.0159 23.8095L25.0794 23.873L25.2064 23.9365H25.2699L25.3969 24H25.5239H25.5873H25.8413H26.2858L26.5397 23.9365H26.7302L27.0477 23.873L27.2381 23.8095L27.4286 23.746L27.5556 23.6191L27.7461 23.4921L28 23.3016L28.1905 23.0476L28.0635 24H30.2858L31.3651 16.8889H29.0794Z" fill="white"/>
<path d="M10.6668 15.4286L9.65092 15.1111L9.20647 15.0476L8.82552 14.9841L8.38108 14.9207H8.00012L7.80965 14.9841H7.55568L7.30171 15.0476H7.11123L6.85727 15.1111L6.66679 15.1746L6.47631 15.2381L6.28584 15.3016L6.09536 15.3651L5.90489 15.4921L5.71441 15.5556L5.58743 15.6826L5.39695 15.8095L5.26997 15.9365L5.07949 16.0635L4.9525 16.1905L4.82552 16.381L4.69854 16.508L4.57155 16.6984L4.44457 16.8889L4.31758 17.0794L4.25409 17.2699L4.12711 17.4603L4.06362 17.6508L3.93663 17.9048L3.87314 18.0953L3.74616 18.6032L3.61917 19.1746L3.55568 19.4286L3.49219 19.6826V20V20.254V20.508V20.7619V20.9524L3.55568 21.2064V21.3968L3.61917 21.5873L3.68266 21.8413L3.74616 22.0318L3.87314 22.2222L3.93663 22.3492L4.06362 22.5397L4.12711 22.6667L4.25409 22.8572L4.38108 22.9841L4.50806 23.1111L4.63504 23.2381L4.76203 23.3016L4.88901 23.4286L5.07949 23.5556L5.20647 23.6191L5.33346 23.6826L5.52393 23.7461L5.65092 23.8095L5.7779 23.873L5.96838 23.9365H6.09536L6.28584 24H6.41282L6.79377 24.0635H7.11123H7.42869H7.87314L8.1906 24L8.38108 23.9365H8.50806L8.82552 23.8095L8.95251 23.7461L9.20647 23.5556L9.58743 21.6508L9.39695 21.7778L9.26997 21.9048L9.14298 21.9683L8.95251 22.0318L8.88901 22.0953L8.76203 22.1588L8.50806 22.2222H8.12711L8.00012 22.2857L7.68266 22.2222H7.17473L6.92076 22.1588L6.73028 22.0318L6.47631 21.9683L6.34933 21.8413L6.15885 21.7143L6.03187 21.5238L5.90489 21.3968L5.84139 21.2064L5.7779 21.0159L5.71441 20.8254L5.65092 20.5714V20.381V20.1905V19.9365V19.6826L5.71441 19.4921L5.84139 19.0476L5.90489 18.6667L6.09536 18.3492L6.15885 18.1587L6.22235 18.0318L6.34933 17.7778L6.41282 17.6508L6.53981 17.5873L6.6033 17.4603L6.66679 17.3968L6.79377 17.3334L6.98425 17.2064L7.04774 17.1429L7.23822 17.0159H7.30171L7.49219 16.9524H7.61917L7.68266 16.8889H8.06362L8.57155 16.8254L8.82552 16.8889L9.20647 16.9524L9.65092 17.0794L9.96838 17.2064L10.3493 17.3968L10.6668 15.4286Z" fill="white"/>
<path d="M18.6662 18.9207L19.3012 16.762H19.0472H18.7297H18.5392L18.2853 16.8255L17.9678 16.8889L17.6504 17.0794L17.5234 17.1429L17.3964 17.2064L17.2694 17.3334L17.1424 17.4604L16.9519 17.6508L17.0154 16.8255H15.0472H14.9837L13.7773 23.9366V24H16.0631L16.8885 19.6826L16.9519 19.6191L17.0154 19.4921L17.0789 19.4286L17.1424 19.3016L17.2059 19.2381L17.2694 19.1747L17.3329 19.1112L17.4599 18.9842L17.5869 18.9207H17.6504L17.8408 18.8572L18.0313 18.7937H18.1583H18.2218L18.6027 18.8572L18.6662 18.9207Z" fill="white"/>
<path d="M23.8734 16.762H23.5559H23.3654L23.1115 16.8255L22.8575 16.8889L22.667 16.9524L22.54 17.0159L22.4131 17.0794L22.2226 17.2064L22.0321 17.3334L21.9051 17.4604L21.7146 17.6508L21.8416 16.8255H21.7781H19.8734H19.8099L18.6035 23.9366L18.54 24H20.8258L21.7146 19.6826V19.6191L21.7781 19.4921L21.8416 19.4286L21.9051 19.3016L21.9686 19.2381L22.0321 19.1747L22.1591 19.1112L22.2226 19.0477L22.2861 18.9842L22.3496 18.9207H22.4765L22.6035 18.8572L22.8575 18.7937H22.921H23.048L23.4289 18.8572L23.4924 18.9207L24.1273 16.762H23.8734Z" fill="white"/>
</svg>
