<svg width="40" height="40" viewBox="0 0 40 40" fill="none" xmlns="http://www.w3.org/2000/svg">
<path d="M5.48387 5.58057C2.3871 5.58057 0 7.5806 0 11.0645V21.0002C0.258065 22.226 1.54839 23.1292 2.96774 23.1292C4.58065 23.1292 5.74194 21.9679 5.74194 20.5486V15.5162H10.129V20.484C10.129 23.2583 6.58064 24.6777 4 24.6777C2.51613 24.6777 1.09677 24.226 0.0645161 23.4518V34.4198H7.03226C9.48387 34.4198 12.3226 32.0971 12.3226 29.1294V5.58057H5.48387Z" fill="#1174CE"/>
<path d="M0 11.0645V21.0002C0.258065 22.226 1.54839 23.1292 2.96774 23.1292C4.58065 23.1292 5.74194 21.9679 5.74194 20.5486V15.5162H10.129V20.484C10.129 23.2583 6.58064 24.6777 4 24.6777C2.51613 24.6777 1.09677 24.226 0.0645161 23.4518V34.4198H7.03226C9.48387 34.4198 12.3226 32.0971 12.3226 29.1294V5.58057" fill="#0F549D"/>
<path d="M10.0645 15.5161V20.4839C10.0645 23.258 6.51613 24.6774 3.93548 24.6774C2.45161 24.6774 1.03226 24.2258 0 23.4516V34.4193H6.96774C9.41935 34.4193 12.2581 32.0968 12.2581 29.129" fill="#02375E"/>
<path d="M29.8711 23H32.9034C33.6775 23 34.3872 22.2903 34.3872 21.5161C34.3872 20.7419 33.6775 20.0322 32.9034 20.0322H29.8711V23Z" fill="#146643"/>
<path d="M33.2906 5.58057C30.1293 5.58057 27.8067 7.5806 27.8067 11V15.5162H35.9357C37.097 15.5162 38.0648 16.484 38.0648 17.6453C38.0648 18.8066 37.097 19.7744 35.9357 19.7744C37.2261 19.7744 38.2583 20.6776 38.2583 21.8389C38.2583 23.0002 37.2906 23.9035 35.9357 23.9035H27.7422V34.4198H34.7099C37.1615 34.4198 40.0003 32.0971 40.0003 29.1294V5.58057H33.2906Z" fill="#1BCC38"/>
<path d="M27.7422 11.0645V15.5162H35.8712C37.0325 15.5162 38.0003 16.484 38.0003 17.6453C38.0003 18.8066 37.0325 19.7744 35.8712 19.7744C37.1615 19.7744 38.1938 20.6776 38.1938 21.8389C38.1938 23.0002 37.2261 23.9035 35.8712 23.9035H27.7422V34.4198H34.7099C37.1615 34.4198 40.0003 32.0971 40.0003 29.1294V5.58057" fill="#329947"/>
<path d="M38.0003 17.6453C38.0003 18.8066 37.0325 19.7743 35.8712 19.7743C37.1615 19.7743 38.1938 20.6775 38.1938 21.8388C38.1938 23.0001 37.2261 23.9033 35.8712 23.9033H27.7422V34.4195H34.7099C37.1615 34.4195 40.0003 32.0969 40.0003 29.1291" fill="#146643"/>
<path d="M34.3227 17.9033C34.3227 17.1291 33.613 16.4194 32.8388 16.4194H29.8711V19.3227H32.9034C33.6775 19.3227 34.3227 18.6775 34.3227 17.9033Z" fill="#146643"/>
<path d="M19.2905 5.58057C16.1292 5.58057 13.8066 7.5806 13.8066 11V16.5485C14.5808 15.9033 15.5486 15.4517 16.5808 15.4517H23.9357V17.0001C22.1937 16.613 20.5163 16.4195 19.6776 16.4195C17.8712 16.4195 16.3873 17.9034 16.3873 19.7098C16.3873 21.5163 17.8712 23.0002 19.6776 23.0002C20.5163 23.0002 22.1937 22.8712 23.9357 22.4841V23.9035H16.5808C15.5486 23.9035 14.5163 23.5164 13.8066 22.8067V34.4198H20.7744C23.226 34.4198 26.0647 32.0971 26.0647 29.1294V5.58057H19.2905Z" fill="#E20E37"/>
<path d="M13.8066 11.0645V16.613C14.5808 15.9678 15.5486 15.5162 16.5808 15.5162H23.9357V17.0646C22.1937 16.6775 20.5163 16.484 19.6776 16.484C17.8712 16.484 16.3873 17.9679 16.3873 19.7744C16.3873 21.5808 17.8712 23.0647 19.6776 23.0647C20.5163 23.0647 22.1937 22.9357 23.9357 22.5486V23.9035H16.5808C15.5486 23.9035 14.5163 23.5164 13.8066 22.8067V34.4198H20.7744C23.226 34.4198 26.0647 32.0971 26.0647 29.1294V5.58057" fill="#B41F36"/>
<path d="M23.9357 15.5161V17.0645C22.1937 16.6774 20.5163 16.4839 19.6776 16.4839C17.8712 16.4839 16.3873 17.9677 16.3873 19.7742C16.3873 21.5806 17.8712 23.0645 19.6776 23.0645C20.5163 23.0645 22.1937 22.9355 23.9357 22.5484V23.9032H16.5808C15.5486 23.9032 14.5163 23.5161 13.8066 22.8064V34.4193H20.7744C23.226 34.4193 26.0647 32.0968 26.0647 29.129" fill="#720A1E"/>
</svg>
