<svg width="40" height="40" viewBox="0 0 40 40" fill="none" xmlns="http://www.w3.org/2000/svg">
<path d="M40 20C40 26.6032 34.6666 32 28 32C21.3968 32 16 26.6032 16 20C16 13.3968 21.3333 8 27.9365 8C34.6666 8 40 13.3968 40 20Z" fill="#FFB600"/>
<path d="M28 8C34.6031 8 40 13.3968 40 20C40 26.6032 34.6666 32 28 32C21.3968 32 16 26.6032 16 20" fill="#F7981D"/>
<path d="M28 8C34.6032 8 40 13.3968 40 20C40 26.6032 34.6667 32 28 32" fill="#FF8500"/>
<path d="M11.873 8C5.33333 8.06349 0 13.3968 0 20C0 26.6032 5.33333 32 12 32C15.1111 32 17.9048 30.7936 20.0635 28.8889C20.5079 28.5079 20.8889 28.0635 21.2698 27.619H18.7937C18.4762 27.2381 18.1587 26.7936 17.9048 26.4127H22.1587C22.4127 26.0317 22.6667 25.5873 22.8571 25.1428H17.2064C17.0159 24.7619 16.8254 24.3174 16.6984 23.873H23.3016C23.6825 22.6667 23.9365 21.3968 23.9365 20.0635C23.9365 19.1746 23.8095 18.3492 23.6825 17.5238H16.3175C16.381 17.0794 16.5079 16.6984 16.6349 16.254H23.2381C23.1111 15.8095 22.9206 15.3651 22.7302 14.9841H17.1429C17.3333 14.5397 17.5873 14.1587 17.8413 13.7143H22.0952C21.8413 13.2698 21.5238 12.8254 21.1429 12.4444H18.7937C19.1746 12 19.5556 11.619 20 11.2381C17.9048 9.26984 15.0476 8.12698 11.9365 8.12698C11.9365 8 11.9365 8 11.873 8Z" fill="#FF5050"/>
<path d="M0 20C0 26.6031 5.33333 32 12 32C15.1111 32 17.9048 30.7936 20.0635 28.8889C20.5079 28.5079 20.8889 28.0635 21.2698 27.619H18.7937C18.4762 27.2381 18.1587 26.7936 17.9048 26.4127H22.1587C22.4127 26.0317 22.6667 25.5873 22.8571 25.1428H17.2064C17.0159 24.7619 16.8254 24.3174 16.6984 23.873H23.3016C23.6825 22.6666 23.9365 21.3968 23.9365 20.0635C23.9365 19.1746 23.8095 18.3492 23.6825 17.5238H16.3175C16.381 17.0793 16.5079 16.6984 16.6349 16.2539H23.2381C23.1111 15.8095 22.9206 15.3651 22.7302 14.9841H17.1429C17.3333 14.5397 17.5873 14.1587 17.8413 13.7143H22.0952C21.8413 13.2698 21.5238 12.8254 21.1429 12.4444H18.7937C19.1746 12 19.5556 11.619 20 11.2381C17.9048 9.26981 15.0476 8.12695 11.9365 8.12695H11.873" fill="#E52836"/>
<path d="M12 32C15.1111 32 17.9048 30.7936 20.0635 28.8889C20.508 28.5079 20.8889 28.0635 21.2699 27.619H18.7937C18.4762 27.2381 18.1588 26.7936 17.9048 26.4127H22.1588C22.4127 26.0317 22.6667 25.5873 22.8572 25.1428H17.2064C17.0159 24.7619 16.8254 24.3174 16.6984 23.873H23.3016C23.6826 22.6666 23.9365 21.3968 23.9365 20.0635C23.9365 19.1746 23.8096 18.3492 23.6826 17.5238H16.3175C16.381 17.0793 16.508 16.6984 16.635 16.2539H23.2381C23.1111 15.8095 22.9207 15.3651 22.7302 14.9841H17.1429C17.3334 14.5397 17.5873 14.1587 17.8413 13.7143H22.0953C21.8413 13.2698 21.5238 12.8254 21.1429 12.4444H18.7937C19.1746 12 19.5556 11.619 20 11.2381C17.9048 9.26981 15.0476 8.12695 11.9365 8.12695H11.873" fill="#CB2026"/>
<path d="M16.2534 23.0477L16.4439 21.9684C16.3804 21.9684 16.2534 22.0319 16.1264 22.0319C15.6819 22.0319 15.6185 21.7779 15.682 21.6509L16.0629 19.4287H16.7613L16.9518 18.2224H16.3169L16.4439 17.4604H15.174C15.174 17.4604 14.4121 21.6509 14.4121 22.1589C14.4121 22.9208 14.8566 23.2382 15.428 23.2382C15.8089 23.2382 16.1264 23.1112 16.2534 23.0477Z" fill="white"/>
<path d="M16.6982 21.0158C16.6982 22.7936 17.9046 23.238 18.9205 23.238C19.8728 23.238 20.2538 23.0476 20.2538 23.0476L20.5078 21.8412C20.5078 21.8412 19.8094 22.1587 19.1744 22.1587C17.7776 22.1587 18.0316 21.1428 18.0316 21.1428H20.6347C20.6347 21.1428 20.8252 20.3174 20.8252 19.9999C20.8252 19.1745 20.3808 18.1587 18.984 18.1587C17.6506 18.0317 16.6982 19.4285 16.6982 21.0158ZM18.9205 19.1745C19.6189 19.1745 19.4919 19.9999 19.4919 20.0634H18.0951C18.0951 19.9999 18.2221 19.1745 18.9205 19.1745Z" fill="white"/>
<path d="M26.9843 23.0476L27.2382 21.6508C27.2382 21.6508 26.6033 21.9683 26.1589 21.9683C25.27 21.9683 24.889 21.2699 24.889 20.508C24.889 18.9842 25.6509 18.1588 26.5398 18.1588C27.1747 18.1588 27.6827 18.5397 27.6827 18.5397L27.8731 17.2064C27.8731 17.2064 27.1112 16.8889 26.4128 16.8889C24.9525 16.8889 23.4922 18.1588 23.4922 20.5715C23.4922 22.1588 24.2541 23.2381 25.7779 23.2381C26.2858 23.2381 26.9843 23.0476 26.9843 23.0476Z" fill="white"/>
<path d="M9.26914 18.0317C8.38025 18.0317 7.74533 18.2857 7.74533 18.2857L7.55486 19.3651C7.55486 19.3651 8.12628 19.1111 8.95168 19.1111C9.39612 19.1111 9.77707 19.1746 9.77707 19.5555C9.77707 19.8095 9.71358 19.873 9.71358 19.873C9.71358 19.873 9.33263 19.873 9.14216 19.873C8.06279 19.873 6.85645 20.3175 6.85645 21.7778C6.85645 22.9206 7.61835 23.1746 8.06279 23.1746C8.95168 23.1746 9.33263 22.6032 9.39612 22.6032L9.33263 23.1111H10.4755L10.9834 19.619C10.9834 18.0952 9.71358 18.0317 9.26914 18.0317ZM9.52311 20.8889C9.52311 21.0794 9.39612 22.0952 8.63422 22.0952C8.25327 22.0952 8.12628 21.7778 8.12628 21.5873C8.12628 21.2698 8.31676 20.8254 9.26914 20.8254C9.45962 20.8889 9.52311 20.8889 9.52311 20.8889Z" fill="white"/>
<path d="M12.1898 23.1746C12.5073 23.1746 14.0946 23.2381 14.0946 21.5238C14.0946 19.9365 12.5708 20.254 12.5708 19.6191C12.5708 19.3016 12.8247 19.1746 13.2692 19.1746C13.4597 19.1746 14.1581 19.2381 14.1581 19.2381L14.3485 18.0952C14.3485 18.0952 13.9041 17.9683 13.1422 17.9683C12.1898 17.9683 11.2374 18.3492 11.2374 19.6191C11.2374 21.0794 12.8247 20.9524 12.8247 21.5238C12.8247 21.9048 12.3803 21.9683 12.0628 21.9683C11.4914 21.9683 10.92 21.7778 10.92 21.7778L10.7295 22.9206C10.793 23.0476 11.1104 23.1746 12.1898 23.1746Z" fill="white"/>
<path d="M37.5233 17.0159L37.2694 18.7302C37.2694 18.7302 36.7614 18.0952 36.063 18.0952C34.9202 18.0952 33.9043 19.4921 33.9043 21.1429C33.9043 22.1587 34.4122 23.2381 35.4916 23.2381C36.2535 23.2381 36.6979 22.7302 36.6979 22.7302L36.6345 23.1746H37.9043L38.8567 17.0794L37.5233 17.0159ZM36.9519 20.3809C36.9519 21.0794 36.6345 21.9682 35.936 21.9682C35.4916 21.9682 35.2376 21.5873 35.2376 20.9524C35.2376 19.9365 35.6821 19.3016 36.2535 19.3016C36.6979 19.3016 36.9519 19.619 36.9519 20.3809Z" fill="white"/>
<path d="M2.34893 23.1111L3.11083 18.5397L3.23782 23.1111H4.1267L5.7775 18.5397L5.07909 23.1111H6.41242L7.42829 17.0159H5.33305L4.06321 20.7619L3.99972 17.0159H2.15845L1.14258 23.1111H2.34893Z" fill="white"/>
<path d="M22.0316 23.1111C22.4125 21.0158 22.476 19.3015 23.3649 19.619C23.4919 18.7936 23.6824 18.4762 23.8094 18.1587C23.8094 18.1587 23.7459 18.1587 23.5554 18.1587C22.984 18.1587 22.5395 18.9206 22.5395 18.9206L22.6665 18.2222H21.4602L20.6348 23.1746H22.0316V23.1111Z" fill="white"/>
<path d="M29.9049 18.0317C29.016 18.0317 28.3811 18.2857 28.3811 18.2857L28.1906 19.3651C28.1906 19.3651 28.762 19.1111 29.5874 19.1111C30.0319 19.1111 30.4128 19.1746 30.4128 19.5555C30.4128 19.8095 30.3493 19.873 30.3493 19.873C30.3493 19.873 29.9684 19.873 29.7779 19.873C28.6985 19.873 27.4922 20.3175 27.4922 21.7778C27.4922 22.9206 28.2541 23.1746 28.6985 23.1746C29.5874 23.1746 29.9684 22.6032 30.0319 22.6032L29.9684 23.1111H31.1112L31.6192 19.619C31.6827 18.0952 30.3493 18.0317 29.9049 18.0317ZM30.2223 20.8889C30.2223 21.0794 30.0954 22.0952 29.3335 22.0952C28.9525 22.0952 28.8255 21.7778 28.8255 21.5873C28.8255 21.2698 29.016 20.8254 29.9684 20.8254C30.1589 20.8889 30.1589 20.8889 30.2223 20.8889Z" fill="white"/>
<path d="M32.6986 23.1111C33.0795 21.0158 33.143 19.3015 34.0319 19.619C34.1589 18.7936 34.3494 18.4762 34.4764 18.1587C34.4764 18.1587 34.4129 18.1587 34.2224 18.1587C33.651 18.1587 33.2065 18.9206 33.2065 18.9206L33.3335 18.2222H32.1272L31.3018 23.1746H32.6986V23.1111Z" fill="white"/>
<path d="M14.2852 22.1589C14.2852 22.9208 14.7296 23.2382 15.301 23.2382C15.7455 23.2382 16.1264 23.1112 16.2534 23.0477L16.4439 21.9684C16.3804 21.9684 16.2534 22.0319 16.1264 22.0319C15.682 22.0319 15.6185 21.7779 15.682 21.6509L16.0629 19.4287H16.7613L16.9518 18.2224H16.3169L16.4439 17.4604" fill="#DCE5E5"/>
<path d="M17.333 21.0158C17.333 22.7936 17.9044 23.238 18.9203 23.238C19.8727 23.238 20.2536 23.0476 20.2536 23.0476L20.5076 21.8412C20.5076 21.8412 19.8092 22.1587 19.1743 22.1587C17.7775 22.1587 18.0314 21.1428 18.0314 21.1428H20.6346C20.6346 21.1428 20.8251 20.3174 20.8251 19.9999C20.8251 19.1745 20.3806 18.1587 18.9838 18.1587C17.6505 18.0317 17.333 19.4285 17.333 21.0158ZM18.9203 19.1745C19.6187 19.1745 19.7457 19.9999 19.7457 20.0634H18.0949C18.0949 19.9999 18.2219 19.1745 18.9203 19.1745Z" fill="#DCE5E5"/>
<path d="M26.9841 23.0476L27.2381 21.6508C27.2381 21.6508 26.6031 21.9683 26.1587 21.9683C25.2698 21.9683 24.8889 21.2699 24.8889 20.508C24.8889 18.9842 25.6508 18.1588 26.5397 18.1588C27.1746 18.1588 27.6825 18.5397 27.6825 18.5397L27.873 17.2064C27.873 17.2064 27.1111 16.8889 26.4127 16.8889C24.9523 16.8889 24.127 18.1588 24.127 20.5715C24.127 22.1588 24.2539 23.2381 25.7777 23.2381C26.2857 23.2381 26.9841 23.0476 26.9841 23.0476Z" fill="#DCE5E5"/>
<path d="M7.55486 19.4285C7.55486 19.4285 8.12628 19.1746 8.95168 19.1746C9.39612 19.1746 9.77707 19.2381 9.77707 19.619C9.77707 19.873 9.71358 19.9365 9.71358 19.9365C9.71358 19.9365 9.33263 19.9365 9.14216 19.9365C8.06279 19.9365 6.85645 20.3809 6.85645 21.8412C6.85645 22.9841 7.61835 23.2381 8.06279 23.2381C8.95168 23.2381 9.33263 22.6666 9.39612 22.6666L9.33263 23.1746H10.4755L10.9834 19.6825C10.9834 18.2222 9.71358 18.1587 9.20565 18.1587L7.55486 19.4285ZM10.158 20.8889C10.158 21.0793 9.39612 22.0952 8.63422 22.0952C8.25327 22.0952 8.12628 21.7777 8.12628 21.5873C8.12628 21.2698 8.31676 20.8254 9.26914 20.8254C9.45962 20.8888 10.158 20.8889 10.158 20.8889Z" fill="#DCE5E5"/>
<path d="M10.793 23.0476C10.793 23.0476 11.1739 23.1746 12.2533 23.1746C12.5707 23.1746 14.158 23.2381 14.158 21.5238C14.158 19.9365 12.6342 20.254 12.6342 19.6191C12.6342 19.3016 12.8882 19.1746 13.3327 19.1746C13.5231 19.1746 14.2215 19.2381 14.2215 19.2381L14.412 18.0952C14.412 18.0952 13.9676 17.9683 13.2057 17.9683C12.2533 17.9683 11.9358 18.3492 11.9358 19.6191C11.9358 21.0794 12.8882 20.9524 12.8882 21.5238C12.8882 21.9048 12.4438 21.9683 12.1263 21.9683" fill="#DCE5E5"/>
<path d="M37.2689 18.7301C37.2689 18.7301 36.761 18.0952 36.0626 18.0952C34.9197 18.0952 34.5388 19.492 34.5388 21.1428C34.5388 22.1587 34.4118 23.2381 35.4912 23.2381C36.2531 23.2381 36.6975 22.7301 36.6975 22.7301L36.634 23.1746H37.9039L38.8562 17.0793L37.2689 18.7301ZM37.2055 20.3809C37.2055 21.0793 36.634 21.9682 35.9356 21.9682C35.4912 21.9682 35.2372 21.5873 35.2372 20.9524C35.2372 19.9365 35.6816 19.3016 36.2531 19.3016C36.6975 19.3016 37.2055 19.619 37.2055 20.3809Z" fill="#DCE5E5"/>
<path d="M2.34893 23.1111L3.11083 18.5397L3.23782 23.1111H4.1267L5.7775 18.5397L5.07909 23.1111H6.41242L7.42829 17.0159H5.84099L4.06321 20.7619L3.99972 17.0159H3.30131L1.14258 23.1111H2.34893Z" fill="#DCE5E5"/>
<path d="M20.6982 23.1111H22.0316C22.4125 21.0158 22.476 19.3015 23.3649 19.619C23.4919 18.7936 23.6824 18.4762 23.8094 18.1587C23.8094 18.1587 23.7459 18.1587 23.5554 18.1587C22.984 18.1587 22.5395 18.9206 22.5395 18.9206L22.6665 18.2222" fill="#DCE5E5"/>
<path d="M28.1906 19.4285C28.1906 19.4285 28.762 19.1746 29.5874 19.1746C30.0319 19.1746 30.4128 19.2381 30.4128 19.619C30.4128 19.873 30.3493 19.9365 30.3493 19.9365C30.3493 19.9365 29.9684 19.9365 29.7779 19.9365C28.6985 19.9365 27.4922 20.3809 27.4922 21.8412C27.4922 22.9841 28.2541 23.2381 28.6985 23.2381C29.5874 23.2381 29.9684 22.6666 30.0319 22.6666L29.9684 23.1746H31.1112L31.6192 19.6825C31.6192 18.2222 30.3493 18.1587 29.8414 18.1587L28.1906 19.4285ZM30.7938 20.8889C30.7938 21.0793 30.0319 22.0952 29.27 22.0952C28.889 22.0952 28.762 21.7777 28.762 21.5873C28.762 21.2698 28.9525 20.8254 29.9049 20.8254C30.1589 20.8888 30.7938 20.8889 30.7938 20.8889Z" fill="#DCE5E5"/>
<path d="M31.3652 23.1111H32.6986C33.0795 21.0158 33.143 19.3015 34.0319 19.619C34.1589 18.7936 34.3494 18.4762 34.4763 18.1587C34.4763 18.1587 34.4129 18.1587 34.2224 18.1587C33.651 18.1587 33.2065 18.9206 33.2065 18.9206L33.3335 18.2222" fill="#DCE5E5"/>
</svg>
