<svg width="24" height="24" viewBox="0 0 24 24" fill="none" xmlns="http://www.w3.org/2000/svg">
<path d="M21 15C21 15.5304 20.7893 16.0391 20.4142 16.4142C20.0391 16.7893 19.5304 17 19 17H7L3 21V5C3 4.46957 3.21071 3.96086 3.58579 3.58579C3.96086 3.21071 4.46957 3 5 3H19C19.5304 3 20.0391 3.21071 20.4142 3.58579C20.7893 3.96086 21 4.46957 21 5V15Z" stroke="white" stroke-width="1.5" stroke-linecap="round" stroke-linejoin="round"/>
<path d="M11.9997 10.6666C12.3679 10.6666 12.6663 10.3681 12.6663 9.99992C12.6663 9.63173 12.3679 9.33325 11.9997 9.33325C11.6315 9.33325 11.333 9.63173 11.333 9.99992C11.333 10.3681 11.6315 10.6666 11.9997 10.6666Z" stroke="white" stroke-width="1.5" stroke-linecap="round" stroke-linejoin="round"/>
<path d="M16.6667 10.6666C17.0349 10.6666 17.3333 10.3681 17.3333 9.99992C17.3333 9.63173 17.0349 9.33325 16.6667 9.33325C16.2985 9.33325 16 9.63173 16 9.99992C16 10.3681 16.2985 10.6666 16.6667 10.6666Z" stroke="white" stroke-width="1.5" stroke-linecap="round" stroke-linejoin="round"/>
<path d="M7.33366 10.6666C7.70185 10.6666 8.00033 10.3681 8.00033 9.99992C8.00033 9.63173 7.70185 9.33325 7.33366 9.33325C6.96547 9.33325 6.66699 9.63173 6.66699 9.99992C6.66699 10.3681 6.96547 10.6666 7.33366 10.6666Z" stroke="white" stroke-width="1.5" stroke-linecap="round" stroke-linejoin="round"/>
</svg>
