<svg width="28" height="28" viewBox="0 0 28 28" fill="none" xmlns="http://www.w3.org/2000/svg">
<path d="M14.2917 19.8333C18.802 19.8333 22.4583 16.177 22.4583 11.6667C22.4583 7.15634 18.802 3.5 14.2917 3.5C9.78134 3.5 6.125 7.15634 6.125 11.6667C6.125 16.177 9.78134 19.8333 14.2917 19.8333Z" stroke="#4F4F4F" stroke-width="1.5" stroke-linecap="round" stroke-linejoin="round"/>
<path d="M9.64924 18.965L8.16699 25.0833L14.292 23.0685L20.417 25.0833L18.9347 18.9583" stroke="#4F4F4F" stroke-width="1.5" stroke-linecap="round" stroke-linejoin="round"/>
<path d="M11.198 13.7433C10.8754 13.7433 10.5814 13.6821 10.316 13.5596C10.0547 13.433 9.82803 13.2656 9.63612 13.0573C9.4442 12.845 9.2972 12.6081 9.19512 12.3468C9.09303 12.0814 9.04199 11.8078 9.04199 11.5261C9.04199 11.2402 9.09508 10.9666 9.20124 10.7053C9.31149 10.4399 9.46258 10.2051 9.65449 10.0009C9.85049 9.79269 10.0812 9.62935 10.3466 9.51094C10.612 9.39252 10.902 9.33331 11.2164 9.33331C11.539 9.33331 11.8309 9.3966 12.0922 9.52319C12.3577 9.64569 12.5843 9.8131 12.7721 10.0254C12.964 10.2378 13.111 10.4766 13.2131 10.7421C13.3152 11.0034 13.3662 11.2709 13.3662 11.5444C13.3662 11.8303 13.3111 12.1059 13.2009 12.3713C13.0947 12.6326 12.9436 12.8674 12.7476 13.0757C12.5557 13.2799 12.327 13.4432 12.0616 13.5657C11.8003 13.6841 11.5124 13.7433 11.198 13.7433ZM10.0649 11.5383C10.0649 11.7629 10.1077 11.9752 10.1935 12.1753C10.2792 12.3713 10.4079 12.5326 10.5794 12.6592C10.7509 12.7858 10.9591 12.8491 11.2041 12.8491C11.4573 12.8491 11.6676 12.7837 11.835 12.6531C12.0065 12.5224 12.1331 12.357 12.2147 12.1569C12.3005 11.9528 12.3434 11.7425 12.3434 11.5261C12.3434 11.3015 12.2985 11.0912 12.2086 10.8952C12.1229 10.6951 11.9942 10.5338 11.8227 10.4113C11.6553 10.2888 11.4491 10.2276 11.2041 10.2276C10.951 10.2276 10.7386 10.2929 10.5671 10.4236C10.3997 10.5501 10.2731 10.7135 10.1874 10.9136C10.1057 11.1136 10.0649 11.3219 10.0649 11.5383Z" fill="#4F4F4F"/>
<path d="M13.9467 13.7066V9.35781H15.9067C16.1108 9.35781 16.2987 9.40069 16.4702 9.48644C16.6458 9.5681 16.7968 9.6804 16.9234 9.82331C17.05 9.96215 17.148 10.1194 17.2174 10.2949C17.2909 10.4705 17.3277 10.6481 17.3277 10.8278C17.3277 11.0973 17.2623 11.3464 17.1317 11.5751C17.0051 11.7996 16.8336 11.9711 16.6172 12.0896L17.5727 13.7066H16.4641L15.6311 12.3039H14.9512V13.7066H13.9467ZM14.9512 11.4281H15.8699C15.9883 11.4281 16.0904 11.3729 16.1762 11.2627C16.2619 11.1484 16.3048 11.0034 16.3048 10.8278C16.3048 10.6522 16.2558 10.5114 16.1578 10.4052C16.0598 10.2949 15.9536 10.2398 15.8393 10.2398H14.9512V11.4281Z" fill="#4F4F4F"/>
<path d="M18.05 13.7066V9.35781H19.0545V13.7066H18.05Z" fill="#4F4F4F"/>
</svg>
