<svg width="40" height="40" viewBox="0 0 40 40" fill="none" xmlns="http://www.w3.org/2000/svg">
<path d="M30.9207 17.5557H28.762C28.635 17.5557 28.508 17.6826 28.4446 17.8096L27.5557 23.3969C27.5557 23.5239 27.6192 23.5874 27.7461 23.5874H28.889C29.016 23.5874 29.0795 23.5239 29.0795 23.3969L29.3334 21.8096C29.3334 21.6827 29.4604 21.5557 29.6509 21.5557H30.3493C31.8096 21.5557 32.635 20.8573 32.8255 19.4604C32.9525 18.889 32.8255 18.3811 32.5715 18.0636C32.1906 17.7461 31.6192 17.5557 30.9207 17.5557ZM31.1747 19.6509C31.0477 20.4128 30.4763 20.4128 29.9049 20.4128H29.5239L29.7779 18.9525C29.7779 18.889 29.8414 18.8255 29.9684 18.8255H30.0953C30.4763 18.8255 30.8573 18.8255 31.0477 19.0795C31.1747 19.143 31.1747 19.3334 31.1747 19.6509Z" fill="#139AD6"/>
<path d="M15.3651 17.5557H13.2063C13.0794 17.5557 12.9524 17.6826 12.8889 17.8096L12 23.3969C12 23.5239 12.0635 23.5874 12.1905 23.5874H13.2063C13.3333 23.5874 13.4603 23.4604 13.5238 23.3335L13.7778 21.8096C13.7778 21.6827 13.9048 21.5557 14.0952 21.5557H14.7937C16.254 21.5557 17.0794 20.8573 17.2698 19.4604C17.3968 18.889 17.2698 18.3811 17.0159 18.0636C16.6349 17.7461 16.127 17.5557 15.3651 17.5557ZM15.619 19.6509C15.4921 20.4128 14.9206 20.4128 14.3492 20.4128H14.0317L14.2857 18.9525C14.2857 18.889 14.3492 18.8255 14.4762 18.8255H14.6032C14.9841 18.8255 15.3651 18.8255 15.5556 19.0795C15.619 19.143 15.6825 19.3334 15.619 19.6509Z" fill="#263B80"/>
<path d="M21.9052 19.5874H20.8894C20.8259 19.5874 20.6989 19.6509 20.6989 19.7144L20.6354 20.0319L20.5719 19.9049C20.3179 19.5874 19.8735 19.4604 19.3655 19.4604C18.2227 19.4604 17.2068 20.3493 17.0163 21.5557C16.8894 22.1906 17.0798 22.7621 17.3973 23.143C17.7148 23.524 18.1592 23.6509 18.7306 23.6509C19.683 23.6509 20.1909 23.0795 20.1909 23.0795L20.1275 23.397C20.1275 23.524 20.1909 23.5875 20.3179 23.5875H21.2703C21.3973 23.5875 21.5243 23.4605 21.5878 23.3335L22.1592 19.7779C22.0957 19.7144 21.9687 19.5874 21.9052 19.5874ZM20.4449 21.6192C20.3179 22.1906 19.8735 22.6351 19.2386 22.6351C18.9211 22.6351 18.6671 22.5081 18.5402 22.3811C18.4132 22.1906 18.3497 21.9366 18.3497 21.6192C18.4132 21.0478 18.9211 20.6033 19.4925 20.6033C19.81 20.6033 20.0005 20.7303 20.1909 20.8573C20.3814 21.0478 20.4449 21.3652 20.4449 21.6192Z" fill="#263B80"/>
<path d="M37.3974 19.5872H36.3815C36.318 19.5872 36.1911 19.6507 36.1911 19.7142L36.1276 20.0316L36.0641 19.9047C35.8101 19.5872 35.3657 19.4602 34.8577 19.4602C33.7149 19.4602 32.699 20.3491 32.5085 21.5555C32.3815 22.1904 32.572 22.7618 32.8895 23.1428C33.2069 23.5237 33.6514 23.6507 34.2228 23.6507C35.1752 23.6507 35.6831 23.0793 35.6831 23.0793L35.6196 23.3967C35.6196 23.5237 35.6831 23.5872 35.8101 23.5872H36.7625C36.8895 23.5872 37.0165 23.4602 37.0799 23.3332L37.6514 19.7777C37.5879 19.7142 37.5244 19.5872 37.3974 19.5872ZM35.9371 21.6189C35.8101 22.1904 35.3657 22.6348 34.7307 22.6348C34.4133 22.6348 34.1593 22.5078 34.0323 22.3809C33.9053 22.1904 33.8419 21.9364 33.8419 21.6189C33.9053 21.0475 34.4133 20.6031 34.9847 20.6031C35.3022 20.6031 35.4926 20.7301 35.6831 20.857C35.9371 21.0475 36.0006 21.365 35.9371 21.6189Z" fill="#139AD6"/>
<path d="M27.4289 19.5874H26.3496C26.2226 19.5874 26.1591 19.6509 26.0956 19.7144L24.6988 21.8731L24.0639 19.8414C24.0004 19.7144 23.9369 19.6509 23.7464 19.6509H22.7305C22.6035 19.6509 22.54 19.7779 22.54 19.9049L23.6829 23.2699L22.6035 24.7937C22.54 24.9207 22.6035 25.1112 22.7305 25.1112H23.7464C23.8734 25.1112 23.9369 25.0477 24.0004 24.9842L27.4924 19.9684C27.6829 19.7779 27.5559 19.5874 27.4289 19.5874Z" fill="#263B80"/>
<path d="M38.6028 17.7461L37.7139 23.4604C37.7139 23.5874 37.7774 23.6509 37.9043 23.6509H38.7932C38.9202 23.6509 39.0472 23.5239 39.1107 23.3969L39.9996 17.8096C39.9996 17.6826 39.9361 17.6191 39.8091 17.6191H38.7932C38.7297 17.5557 38.6662 17.6191 38.6028 17.7461Z" fill="#139AD6"/>
<path d="M7.30159 15.6508C6.85714 15.1429 6.03175 14.8889 4.88889 14.8889H1.71429C1.52381 14.8889 1.33333 15.0794 1.26984 15.2699L0 23.5873C0 23.7778 0.126984 23.9048 0.253968 23.9048H2.22222L2.73016 20.7937V20.9207C2.79365 20.7302 2.98413 20.5397 3.1746 20.5397H4.12698C5.96825 20.5397 7.36508 19.7778 7.80952 17.6826C7.80952 17.6191 7.80952 17.5556 7.80952 17.4921C7.74603 17.4921 7.74603 17.4921 7.80952 17.4921C7.87302 16.6667 7.74603 16.1588 7.30159 15.6508Z" fill="#263B80"/>
<path d="M7.74554 17.4919C7.74554 17.5554 7.74554 17.6189 7.74554 17.6824C7.30109 19.8412 5.90427 20.5396 4.063 20.5396H3.11062C2.92014 20.5396 2.72966 20.73 2.66617 20.9205L2.03125 24.7935C2.03125 24.9205 2.09474 25.0475 2.28522 25.0475H3.93601C4.12649 25.0475 4.31696 24.9205 4.31696 24.73V24.6665L4.63442 22.6983V22.5713C4.63442 22.3808 4.8249 22.2538 5.01538 22.2538H5.26935C6.85665 22.2538 8.12649 21.6189 8.44395 19.7142C8.57093 18.9523 8.50744 18.2538 8.12649 17.8094C8.063 17.6824 7.93601 17.5554 7.74554 17.4919Z" fill="#139AD6"/>
<path d="M7.3019 17.3016C7.2384 17.3016 7.17491 17.2381 7.11142 17.2381C7.04793 17.2381 6.98444 17.2381 6.92094 17.1746C6.66698 17.1111 6.41301 17.1111 6.09555 17.1111H3.61936C3.55587 17.1111 3.49237 17.1111 3.42888 17.1746C3.3019 17.2381 3.23841 17.3651 3.23841 17.492L2.73047 20.7936V20.9206C2.79396 20.7301 2.98444 20.5397 3.17491 20.5397H4.12729C5.96856 20.5397 7.36539 19.7777 7.80983 17.6825C7.80983 17.619 7.80983 17.5555 7.87333 17.492C7.74634 17.4285 7.68285 17.3651 7.55586 17.3651C7.36539 17.3016 7.36539 17.3016 7.3019 17.3016Z" fill="#232C65"/>
</svg>
